<?xml version="1.0" encoding="utf-8"?>
<!-- Generator: Adobe Illustrator 17.0.0, SVG Export Plug-In . SVG Version: 6.00 Build 0)  -->
<!DOCTYPE svg PUBLIC "-//W3C//DTD SVG 1.1//EN" "http://www.w3.org/Graphics/SVG/1.1/DTD/svg11.dtd">
<svg version="1.1" id="Layer_1" xmlns="http://www.w3.org/2000/svg" xmlns:xlink="http://www.w3.org/1999/xlink" x="0px" y="0px"
	 width="503px" height="334px" viewBox="0 0 503 334" enable-background="new 0 0 503 334" xml:space="preserve">
<path fill="#FFFFFF" d="M344.963,0.052L0,0v255.981L82.229,334H503V153.367L344.963,0.052z M121,276.131l-61-61.015V59h61V276.131z
	 M304,216.666C304,255.894,286.246,276,247.196,276C217.088,276,128,276,128,276v-61h176C304,215,304,216.084,304,216.666z M304,208
	h-58v-12c0,0-51.387,0-57.788,0C148.886,196,128,177.252,128,137.922c0-3.611,0-6.922,0-10.922h58v9c0,0,52.553,0,61.196,0
	C286.521,136,304,157.582,304,196.911C304,198.805,304,202,304,208z M304,120h-16.294H185.93H128c0-1,0-1.27,0-1.744
	C128,78.935,148.613,59,187.935,59C198.495,59,304,59,304,59V120z M443,276H310V59.072l61,60.154V215h72V276z"/>
</svg>
